<?xml version="1.0" encoding="utf-8"?>
<!-- Generator: Adobe Illustrator 21.0.0, SVG Export Plug-In . SVG Version: 6.00 Build 0)  -->
<svg version="1.1" id="Layer_1" xmlns="http://www.w3.org/2000/svg" xmlns:xlink="http://www.w3.org/1999/xlink" x="0px" y="0px"
	 viewBox="0 0 28.4 34.8" style="enable-background:new 0 0 28.4 34.8;" xml:space="preserve">
<style type="text/css">
	.st0{fill:#FFFBF2;}
	.st1{fill:#D6D6D6;}
</style>
<polygon class="st0" points="-870.3,-261.3 -870.3,-561.3 -1670.3,-561.3 -1670.3,-261.3 -1670.3,338.7 -870.3,338.7 -870.3,-261.3 
	"/>
<path id="XMLID_142_" class="st1" d="M26.9,31.6h-1.6v-4.1c0-2.3-2.3-4.2-4.5-6.1c-0.8-0.7-1.8-1.6-2.2-2.1v-3.8
	c0.4-0.4,1.5-1.4,2.2-2.1c2.2-1.9,4.5-3.8,4.5-6.1V3.2h1.6c0.9,0,1.6-0.7,1.6-1.6S27.7,0,26.9,0H1.6C0.7,0,0,0.7,0,1.6
	s0.7,1.6,1.6,1.6h1.6v4.1c0,2.3,2.3,4.2,4.5,6.1c0.8,0.7,1.8,1.6,2.2,2.1v3.8c-0.4,0.4-1.5,1.4-2.2,2.1c-2.2,1.9-4.5,3.8-4.5,6.1
	v4.1H1.6c-0.9,0-1.6,0.7-1.6,1.6s0.7,1.6,1.6,1.6h25.3c0.9,0,1.6-0.7,1.6-1.6S27.7,31.6,26.9,31.6z M6.3,27.5c0-0.8,2.2-2.7,3.4-3.7
	c1.9-1.6,3.3-2.8,3.3-4.3v-4.2c0-1.5-1.4-2.7-3.3-4.3c-1.2-1-3.4-2.9-3.4-3.7V3.2h15.8v4.1c0,0.8-2.2,2.7-3.4,3.7
	c-1.9,1.6-3.3,2.8-3.3,4.3v4.2c0,1.5,1.4,2.7,3.3,4.3c1.2,1,3.4,2.9,3.4,3.7v4.1H6.3V27.5z M17.8,6.7V5.9c0-0.8,0.6-1.4,1.4-1.4
	s1.4,0.6,1.4,1.4v0.8c0,0.8-0.6,1.4-1.4,1.4S17.8,7.5,17.8,6.7z"/>
</svg>
