<?xml version="1.0" encoding="utf-8"?>
<!-- Generator: Adobe Illustrator 21.0.0, SVG Export Plug-In . SVG Version: 6.00 Build 0)  -->
<svg version="1.1" id="Layer_1" xmlns="http://www.w3.org/2000/svg" xmlns:xlink="http://www.w3.org/1999/xlink" x="0px" y="0px"
	 viewBox="0 0 33.4 33.4" style="enable-background:new 0 0 33.4 33.4;" xml:space="preserve">
<style type="text/css">
	.st0{fill:#FFFBF2;}
	.st1{fill:#D6D6D6;}
</style>
<polygon class="st0" points="-820.1,-173.5 -820.1,-473.5 -1620.1,-473.5 -1620.1,-173.5 -1620.1,426.5 -820.1,426.5 "/>
<path id="XMLID_127_" class="st1" d="M16.7,0C7.5,0,0,7.5,0,16.7s7.5,16.7,16.7,16.7s16.7-7.5,16.7-16.7S25.9,0,16.7,0z M18.1,30.5
	c-0.1,0-0.2,0-0.2,0v-7.9c1.8,0,3.6-0.1,5.1-0.2C21.6,26.7,19,29.5,18.1,30.5z M15.4,30.5c-1-1-3.5-3.8-4.9-8
	c1.5,0.1,3.3,0.2,5.2,0.2v7.9C15.6,30.5,15.5,30.5,15.4,30.5z M2.9,16.7c0-0.9,0.1-1.8,0.3-2.7c0.8-0.1,2.3-0.4,4.5-0.6
	c-0.2,1-0.3,2.1-0.3,3.3c0,1.1,0.1,2.2,0.3,3.3c-2.1-0.2-3.7-0.4-4.5-0.6C3,18.6,2.9,17.6,2.9,16.7z M9.6,16.7
	c0-1.2,0.1-2.4,0.4-3.5c1.7-0.1,3.5-0.2,5.7-0.2v7.4c-2.2,0-4-0.1-5.7-0.2C9.7,19.1,9.6,17.9,9.6,16.7z M18,3c1,1,3.5,3.9,4.9,8
	c-1.5-0.1-3.3-0.2-5.1-0.2V3C17.8,3,18,3,18,3z M15.6,3v7.9c-1.8,0-3.6,0.1-5.1,0.2c1.4-4.2,3.9-7,4.9-8C15.5,3,15.6,3,15.6,3z
	 M17.8,20.4V13c2.2,0,4,0.1,5.7,0.2c0.2,1.1,0.4,2.3,0.4,3.5c0,1.2-0.1,2.4-0.3,3.5C21.9,20.3,20,20.4,17.8,20.4z M25.8,13.4
	c2.1,0.2,3.7,0.4,4.5,0.6c0.2,0.9,0.3,1.8,0.3,2.7c0,0.9-0.1,1.8-0.3,2.7c-0.8,0.1-2.3,0.4-4.5,0.6c0.2-1,0.3-2.1,0.3-3.3
	C26.1,15.6,26,14.5,25.8,13.4z M29.6,11.7c-1-0.2-2.5-0.3-4.3-0.5c-0.9-3.1-2.4-5.6-3.7-7.4C25.2,5.2,28.2,8.1,29.6,11.7z M11.9,3.8
	c-1.3,1.8-2.8,4.3-3.7,7.4c-1.8,0.2-3.3,0.4-4.3,0.5C5.3,8.1,8.2,5.2,11.9,3.8z M3.9,21.7c1,0.2,2.5,0.3,4.3,0.5
	c0.9,3.1,2.3,5.6,3.6,7.4C8.2,28.2,5.3,25.3,3.9,21.7z M21.7,29.6c1.3-1.7,2.8-4.2,3.6-7.4c1.8-0.2,3.3-0.3,4.3-0.5
	C28.2,25.4,25.3,28.2,21.7,29.6z"/>
</svg>
