<?xml version="1.0" encoding="utf-8"?>
<!-- Generator: Adobe Illustrator 18.1.1, SVG Export Plug-In . SVG Version: 6.00 Build 0)  -->
<svg version="1.1" id="Layer_1" xmlns="http://www.w3.org/2000/svg" xmlns:xlink="http://www.w3.org/1999/xlink" x="0px" y="0px"
	 viewBox="-289 381 32 32" enable-background="new -289 381 32 32" xml:space="preserve">
<path fill="#FFFFFF" d="M-257.3,390.6c0,0-0.3-2.2-1.3-3.2c-1.2-1.3-2.6-1.3-3.2-1.4c-4.5-0.3-11.2-0.3-11.2-0.3l0,0
	c0,0-6.7,0-11.2,0.3c-0.6,0.1-2,0.1-3.2,1.4c-1,1-1.3,3.2-1.3,3.2s-0.3,2.6-0.3,5.2v2.4c0,2.6,0.3,5.2,0.3,5.2s0.3,2.2,1.3,3.2
	c1.2,1.3,2.8,1.2,3.5,1.4c2.6,0.2,10.9,0.3,10.9,0.3s6.7,0,11.2-0.3c0.6-0.1,2-0.1,3.2-1.4c1-1,1.3-3.2,1.3-3.2s0.3-2.6,0.3-5.2
	v-2.4C-257,393.2-257.3,390.6-257.3,390.6z M-276.3,401.2v-9l8.6,4.5L-276.3,401.2z"/>
</svg>
