<?xml version="1.0" encoding="utf-8"?>
<!-- Generator: Adobe Illustrator 21.0.0, SVG Export Plug-In . SVG Version: 6.00 Build 0)  -->
<svg version="1.1" id="Layer_1" xmlns="http://www.w3.org/2000/svg" xmlns:xlink="http://www.w3.org/1999/xlink" x="0px" y="0px"
	 viewBox="0 0 36.3 36.3" style="enable-background:new 0 0 36.3 36.3;" xml:space="preserve">
<style type="text/css">
	.st0{fill:#FFFBF2;}
	.st1{fill:#D6D6D6;}
</style>
<polygon class="st0" points="-866.8,-260.7 -866.8,-560.7 -1666.8,-560.7 -1666.8,-260.7 -1666.8,339.3 -866.8,339.3 -866.8,-260.7 
	"/>
<path id="XMLID_123_" class="st1" d="M36.3,3.4c0-0.9-0.3-1.7-1-2.4L35.3,1c-1.3-1.3-3.4-1.3-4.7,0L11.3,18.8
	C8.7,18.3,5.9,19,3.9,21c-2.7,2.7-2.7,5.7-2.6,7.5c0,0.2,0,0.5,0,0.7c0,1.5-0.8,3.2-1.1,3.8c-0.2,0.4-0.2,0.9-0.1,1.3
	C0.2,34.7,0.6,35,1,35.2c1.8,0.8,3.7,1.2,5.5,1.2c3.1,0,6.1-1.2,8.3-3.4c1.9-1.9,2.9-4.1,2.9-6.4c0-0.5-0.1-1.1-0.2-1.6L35.4,5.8
	C36,5.1,36.3,4.3,36.3,3.4z M12.6,30.7c-2.3,2.3-5.5,3.1-8.9,2.1c0.4-1,0.7-2.3,0.7-3.5v0c0-0.2,0-0.5,0-0.8c0-1.6-0.1-3.4,1.7-5.2
	c1.9-1.9,5-1.9,6.9,0c1,1,1.5,2.1,1.5,3.3C14.5,27.9,13.8,29.4,12.6,30.7z M33.1,3.6C33.1,3.6,33.1,3.6,33.1,3.6L16.1,21.9
	c-0.2-0.3-0.5-0.6-0.8-0.9c-0.3-0.3-0.6-0.5-0.9-0.8l18.3-17c0,0,0,0,0,0c0.1-0.1,0.2-0.1,0.3,0l0.1,0.1c0,0,0.1,0.1,0.1,0.1
	C33.2,3.5,33.2,3.5,33.1,3.6z"/>
</svg>
