<?xml version="1.0" encoding="utf-8"?>
<!-- Generator: Adobe Illustrator 21.0.0, SVG Export Plug-In . SVG Version: 6.00 Build 0)  -->
<svg version="1.1" id="Layer_1" xmlns="http://www.w3.org/2000/svg" xmlns:xlink="http://www.w3.org/1999/xlink" x="0px" y="0px"
	 viewBox="0 0 33.4 21.8" style="enable-background:new 0 0 33.4 21.8;" xml:space="preserve">
<style type="text/css">
	.st0{fill:#FFFBF2;}
	.st1{fill:#D6D6D6;}
</style>
<polygon class="st0" points="-820.6,-227.9 -820.6,-527.9 -1620.6,-527.9 -1620.6,-227.9 -1620.6,372.1 -820.6,372.1 "/>
<path id="XMLID_166_" class="st1" d="M22.7,14.4c2.8,0,5.1-2.3,5.1-5.1c0-2.8-2.3-5.1-5.1-5.1s-5.1,2.3-5.1,5.1
	C17.6,12.1,19.8,14.4,22.7,14.4z M22.7,6.4c1.6,0,2.9,1.3,2.9,2.9c0,1.6-1.3,2.9-2.9,2.9c-1.6,0-2.9-1.3-2.9-2.9
	C19.7,7.7,21,6.4,22.7,6.4z M5.7,6.9c0-0.6,0.5-1.1,1.1-1.1h6.3c0.6,0,1.1,0.5,1.1,1.1S13.7,8,13.1,8H6.8C6.2,8,5.7,7.5,5.7,6.9z
	 M13.1,12H6.8c-0.6,0-1.1-0.5-1.1-1.1c0-0.6,0.5-1.1,1.1-1.1h6.3c0.6,0,1.1,0.5,1.1,1.1C14.2,11.5,13.7,12,13.1,12z M11.5,14.9
	c0,0.6-0.5,1.1-1.1,1.1H6.8c-0.6,0-1.1-0.5-1.1-1.1c0-0.6,0.5-1.1,1.1-1.1h3.7C11.1,13.8,11.5,14.3,11.5,14.9z M33.4,2.4
	C33.4,1.1,32.4,0,31,0H2.4C1.1,0,0,1.1,0,2.4v17c0,1.3,1.1,2.4,2.4,2.4H31c1.3,0,2.4-1.1,2.4-2.4V2.4z M2.9,2.9h27.6v15.2
	c-1.5-1.5-4.3-2.6-5.3-2.9c-0.2-0.1-0.5-0.1-0.7,0l-1.9,0.7l-1.9-0.7c-0.2-0.1-0.5,0-0.7,0c-1.2,0.4-4.6,1.5-5.9,3.7H2.9V2.9z
	 M17.4,18.9c0.8-0.7,1.9-1.1,3.1-1.5l1.9,0.6c0.2,0.1,0.5,0.1,0.7,0l1.9-0.6c1.2,0.4,2.2,0.8,3.1,1.5H17.4z"/>
</svg>
