<?xml version="1.0" encoding="utf-8"?>
<!-- Generator: Adobe Illustrator 21.0.0, SVG Export Plug-In . SVG Version: 6.00 Build 0)  -->
<svg version="1.1" id="Layer_1" xmlns="http://www.w3.org/2000/svg" xmlns:xlink="http://www.w3.org/1999/xlink" x="0px" y="0px"
	 viewBox="0 0 37.3 37.3" style="enable-background:new 0 0 37.3 37.3;" xml:space="preserve">
<style type="text/css">
	.st0{fill:#FFFFFF;}
</style>
<title>Search v3.4</title>
<desc>Created with Sketch.</desc>
<g>
	<g>
		<path class="st0" d="M26.4,28.6l-1.9-1.9C21.9,28.7,18.6,30,15,30C6.7,30,0,23.3,0,15S6.7,0,15,0s15,6.7,15,15
			c0,3.6-1.3,6.9-3.4,9.5l1.9,1.9l0.7-0.7l8,8l-3.5,3.5l-8-8L26.4,28.6L26.4,28.6z M15,26c6.1,0,11-4.9,11-11S21.1,4,15,4
			S4,8.9,4,15S8.9,26,15,26z M16.8,13.3H22v3.5h-5.3V22h-3.5v-5.3H8v-3.5h5.3V8h3.5V13.3z"/>
	</g>
</g>
</svg>
