<?xml version="1.0" encoding="utf-8"?>
<!-- Generator: Adobe Illustrator 21.0.0, SVG Export Plug-In . SVG Version: 6.00 Build 0)  -->
<svg version="1.1" id="Layer_1" xmlns="http://www.w3.org/2000/svg" xmlns:xlink="http://www.w3.org/1999/xlink" x="0px" y="0px"
	 viewBox="0 0 34 22.9" style="enable-background:new 0 0 34 22.9;" xml:space="preserve">
<style type="text/css">
	.st0{fill:#FFFBF2;}
	.st1{fill:#D6D6D6;}
</style>
<polygon class="st0" points="-185,-128.9 -185,-428.9 -985,-428.9 -985,-128.9 -985,471.1 -185,471.1 -185,-128.9 "/>
<path id="XMLID_120_" class="st1" d="M22.1,22.9c-0.4,0-0.8-0.2-1.1-0.5c-0.6-0.6-0.6-1.6,0-2.2l9.1-8.7L21,2.7
	c-0.6-0.6-0.6-1.6,0-2.2c0.6-0.6,1.6-0.6,2.2,0l10.3,9.9c0.3,0.3,0.5,0.7,0.5,1.1s-0.2,0.8-0.5,1.1l-10.3,9.9
	C22.9,22.8,22.5,22.9,22.1,22.9z M13,22.4c0.6-0.6,0.6-1.6,0-2.2l-9.1-8.7l9.1-8.7c0.6-0.6,0.6-1.6,0-2.2c-0.6-0.6-1.6-0.6-2.2,0
	L0.5,10.3C0.2,10.6,0,11,0,11.5s0.2,0.8,0.5,1.1l10.3,9.9c0.3,0.3,0.7,0.4,1.1,0.4C12.3,22.9,12.7,22.8,13,22.4z"/>
</svg>
