<?xml version="1.0" encoding="utf-8"?>
<!-- Generator: Adobe Illustrator 21.0.0, SVG Export Plug-In . SVG Version: 6.00 Build 0)  -->
<svg version="1.1" id="Layer_1" xmlns="http://www.w3.org/2000/svg" xmlns:xlink="http://www.w3.org/1999/xlink" x="0px" y="0px"
	 viewBox="0 0 36.3 21.3" style="enable-background:new 0 0 36.3 21.3;" xml:space="preserve">
<style type="text/css">
	.st0{fill:#FFFBF2;}
	.st1{fill:#D6D6D6;}
</style>
<polygon class="st0" points="-866.8,-268 -866.8,-568 -1666.8,-568 -1666.8,-268 -1666.8,332 -866.8,332 -866.8,-268 "/>
<path id="XMLID_156_" class="st1" d="M36.1,9.8C35.8,9.4,29.4,0,18.2,0C7,0,0.5,9.4,0.3,9.8c-0.4,0.5-0.4,1.2,0,1.8
	c0.3,0.4,6.7,9.8,17.9,9.8c11.2,0,17.6-9.4,17.9-9.8C36.4,11,36.4,10.3,36.1,9.8z M18.2,18.2c-7.6,0-12.8-5.4-14.6-7.5
	c1.8-2.2,6.9-7.5,14.6-7.5c7.6,0,12.8,5.4,14.6,7.5C31,12.8,25.8,18.2,18.2,18.2z M19.1,4.2c-1.7-0.2-3.5,0.2-4.8,1.3l0,0
	c-2.9,2.2-3.5,6.3-1.3,9.2c1.1,1.4,2.6,2.3,4.3,2.6c0.3,0,0.6,0.1,0.9,0.1c1.4,0,2.8-0.5,3.9-1.3c2.9-2.2,3.5-6.3,1.3-9.2
	C22.4,5.3,20.8,4.4,19.1,4.2z M20.7,14c-0.9,0.7-2,1-3.1,0.8c-1.1-0.2-2.1-0.7-2.7-1.6c-1.4-1.8-1-4.5,0.8-5.9c0.9-0.7,2-1,3.1-0.8
	c1.1,0.2,2.1,0.7,2.7,1.6C22.9,10,22.5,12.6,20.7,14z M20.5,8.3C20.8,8.6,21,9,21,9.4c0,0.4-0.2,0.8-0.5,1.1
	c-0.3,0.3-0.7,0.5-1.1,0.5c-0.4,0-0.8-0.2-1.1-0.5c-0.3-0.3-0.5-0.7-0.5-1.1c0-0.4,0.2-0.8,0.5-1.1C18.6,8,19,7.9,19.4,7.9
	C19.8,7.9,20.2,8,20.5,8.3z"/>
</svg>
