<?xml version="1.0" encoding="utf-8"?>
<!-- Generator: Adobe Illustrator 21.0.0, SVG Export Plug-In . SVG Version: 6.00 Build 0)  -->
<svg version="1.1" id="Layer_1" xmlns="http://www.w3.org/2000/svg" xmlns:xlink="http://www.w3.org/1999/xlink" x="0px" y="0px"
	 viewBox="0 0 32 32" style="enable-background:new 0 0 32 32;" xml:space="preserve">
<style type="text/css">
	.st0{fill:#FFFFFF;}
</style>
<path class="st0" d="M27.4,1.2H5c-1.9,0-3.5,1.6-3.5,3.5V27c0,1.9,1.6,3.5,3.5,3.5h22.4c1.9,0,3.5-1.6,3.5-3.5V4.6
	C30.8,2.7,29.3,1.2,27.4,1.2z M23.5,4.8h2.8c0.6,0,0.9,0.4,0.9,0.9v2.8c0,0.6-0.4,0.9-0.9,0.9h-2.8c-0.6,0-0.9-0.4-0.9-0.9V5.8
	C22.6,5.2,22.9,4.8,23.5,4.8z M16.2,10.2c3.1,0,5.7,2.5,5.7,5.6s-2.6,5.6-5.7,5.6s-5.7-2.5-5.7-5.6C10.6,12.7,13,10.2,16.2,10.2z
	 M27.2,27.8h-22c-0.6,0-0.9-0.4-0.9-0.9V13.1h3.7c-0.5,0.7-0.6,1.9-0.6,2.8c0,4.9,4,8.9,8.9,8.9c4.9,0,8.9-4,8.9-8.9
	c0-0.8-0.1-2.1-0.7-2.8H28v13.8C28.1,27.4,27.7,27.8,27.2,27.8z"/>
</svg>
