<?xml version="1.0" encoding="utf-8"?>
<!-- Generator: Adobe Illustrator 21.0.0, SVG Export Plug-In . SVG Version: 6.00 Build 0)  -->
<svg version="1.1" id="Layer_1" xmlns="http://www.w3.org/2000/svg" xmlns:xlink="http://www.w3.org/1999/xlink" x="0px" y="0px"
	 viewBox="0 0 20.5 36.3" style="enable-background:new 0 0 20.5 36.3;" xml:space="preserve">
<style type="text/css">
	.st0{fill:#FFFBF2;}
	.st1{fill:#D6D6D6;}
</style>
<polygon class="st0" points="-163.5,-146 -163.5,-446 -963.5,-446 -963.5,-146 -963.5,454 -163.5,454 -163.5,-146 "/>
<path id="XMLID_167_" class="st1" d="M13,30c0,0.7-0.5,1.2-1.2,1.2h-3c-0.7,0-1.2-0.5-1.2-1.2c0-0.7,0.5-1.2,1.2-1.2h3
	C12.4,28.8,13,29.4,13,30z M20.5,33.3c0,1.7-1.3,3-3,3H3c-1.7,0-3-1.3-3-3V3c0-1.7,1.3-3,3-3h14.5c1.7,0,3,1.3,3,3V33.3z M3.2,3.2
	v20.9h14.2V3.2H3.2z M17.4,33.2v-6.7H3.2v6.7H17.4z"/>
</svg>
