<?xml version="1.0" encoding="utf-8"?>
<!-- Generator: Adobe Illustrator 21.0.0, SVG Export Plug-In . SVG Version: 6.00 Build 0)  -->
<svg version="1.1" id="Layer_1" xmlns="http://www.w3.org/2000/svg" xmlns:xlink="http://www.w3.org/1999/xlink" x="0px" y="0px"
	 viewBox="0 0 33.4 24.4" style="enable-background:new 0 0 33.4 24.4;" xml:space="preserve">
<style type="text/css">
	.st0{fill:#FFFBF2;}
	.st1{fill:#D6D6D6;}
</style>
<polygon class="st0" points="-819.9,-200.7 -819.9,-500.7 -1619.9,-500.7 -1619.9,-200.7 -1619.9,399.3 -819.9,399.3 "/>
<path id="XMLID_149_" class="st1" d="M32.6,7L17.3,0.1c-0.4-0.2-0.8-0.2-1.2,0L0.9,7C0.3,7.2,0,7.7,0,8.3c0,0.6,0.4,1.1,0.9,1.3
	l1.3,0.6v5.1c0,0.5,0.4,0.9,0.9,0.9S4,15.8,4,15.3v-4.2l2.2,1.2v6.2c0,0.2,0.1,0.5,0.2,0.7c0.1,0.2,3.5,5.1,10.1,5.1
	c6.9,0,10-5,10.2-5.2c0.1-0.2,0.2-0.4,0.2-0.7v-6l5.8-2.9c0.5-0.3,0.8-0.8,0.8-1.3C33.4,7.7,33.1,7.2,32.6,7z M24.4,18.1
	c-0.7,0.9-3.2,3.7-7.8,3.7c-4.5,0-7.1-2.8-7.8-3.7v-4.5l7.3,3.7c0.2,0.1,0.4,0.2,0.7,0.2s0.5-0.1,0.7-0.2l7-3.5V18.1z M16.7,14.4
	l-11.9-6L16.7,3l11.9,5.4L16.7,14.4z M4,17.5c0.3,0.3,0.4,0.6,0.4,1c0,0.4-0.2,0.8-0.4,1c-0.3,0.3-0.6,0.4-1,0.4s-0.8-0.2-1-0.4
	c-0.3-0.3-0.4-0.6-0.4-1c0-0.4,0.2-0.8,0.4-1C2.2,17.2,2.6,17,3,17S3.7,17.2,4,17.5z"/>
</svg>
