<?xml version="1.0" encoding="utf-8"?>
<!-- Generator: Adobe Illustrator 21.0.0, SVG Export Plug-In . SVG Version: 6.00 Build 0)  -->
<svg version="1.1" id="Layer_1" xmlns="http://www.w3.org/2000/svg" xmlns:xlink="http://www.w3.org/1999/xlink" x="0px" y="0px"
	 viewBox="0 0 36.3 34" style="enable-background:new 0 0 36.3 34;" xml:space="preserve">
<style type="text/css">
	.st0{fill:#FFFBF2;}
	.st1{fill:#D6D6D6;}
</style>
<polygon class="st0" points="-866.8,-261.2 -866.8,-561.2 -1666.8,-561.2 -1666.8,-261.2 -1666.8,338.8 -866.8,338.8 -866.8,-261.2 
	"/>
<path id="XMLID_149_" class="st1" d="M18.2,21.4c5.9,0,10.6-4.8,10.6-10.7C28.8,4.8,24,0,18.2,0S7.5,4.8,7.5,10.7
	C7.5,16.6,12.3,21.4,18.2,21.4z M18.2,3.2c4.1,0,7.5,3.4,7.5,7.5c0,4.1-3.4,7.5-7.5,7.5s-7.5-3.4-7.5-7.5
	C10.7,6.5,14.1,3.2,18.2,3.2z M23.1,22.4c-0.5-0.2-1.1-0.1-1.5,0.3l-3.4,2.9l-3.4-2.9c-0.4-0.4-1-0.5-1.5-0.3C11,23.1,0,26.9,0,32.4
	C0,33.3,0.7,34,1.6,34h33.2c0.9,0,1.6-0.7,1.6-1.6C36.3,26.9,25.3,23.1,23.1,22.4z M4,30.8c1.7-1.8,5.9-3.9,9.4-5.1l3.8,3.2
	c0.6,0.5,1.5,0.5,2,0l3.8-3.2c3.5,1.2,7.7,3.3,9.4,5.1H4z"/>
</svg>
