<?xml version="1.0" encoding="utf-8"?>
<!-- Generator: Adobe Illustrator 18.1.1, SVG Export Plug-In . SVG Version: 6.00 Build 0)  -->
<svg version="1.1" id="Layer_1" xmlns="http://www.w3.org/2000/svg" xmlns:xlink="http://www.w3.org/1999/xlink" x="0px" y="0px"
	 viewBox="-289 381 32 32" enable-background="new -289 381 32 32" xml:space="preserve">
<path id="White_2_" fill="#FFFFFF" d="M-258.3,381h-29.4c-0.7,0-1.3,0.6-1.3,1.3v29.3c0,0.8,0.6,1.4,1.3,1.4h15.7v-12h-4v-5h4v-4
	c0-4.1,2.6-6.2,6.3-6.2c1.8,0,3.3,0.2,3.7,0.2v4.3h-2.6c-2,0-2.5,1-2.5,2.4v3.3h5l-1,5h-4l0.1,12h8.6c0.7,0,1.3-0.6,1.3-1.3v-29.4
	C-257,381.6-257.6,381-258.3,381z"/>
</svg>
