<?xml version="1.0" encoding="utf-8"?>
<!-- Generator: Adobe Illustrator 21.0.0, SVG Export Plug-In . SVG Version: 6.00 Build 0)  -->
<svg version="1.1" id="Layer_1" xmlns="http://www.w3.org/2000/svg" xmlns:xlink="http://www.w3.org/1999/xlink" x="0px" y="0px"
	 viewBox="0 0 21.8 33.4" style="enable-background:new 0 0 21.8 33.4;" xml:space="preserve">
<style type="text/css">
	.st0{fill:#FFFBF2;}
	.st1{fill:#D6D6D6;}
</style>
<polygon class="st0" points="-826,-282.1 -826,-582.1 -1626,-582.1 -1626,-282.1 -1626,317.9 -826,317.9 "/>
<path class="st1" d="M10.9,0C4.9,0,0,4.9,0,11c0,3.7,1.5,6.7,4.4,8.7v3.6c0,0.4,0.2,0.8,0.5,1.1c0.3,0.2,0.7,0.4,1,0.4
	c0,0,0.1,0,0.1,0l10-0.8c0.8-0.1,1.4-0.7,1.4-1.4v-2.7c2.5-1.8,4.4-5,4.4-8.7C21.8,4.9,16.9,0,10.9,0z M15.3,17.6
	c-0.5,0.3-0.7,0.7-0.7,1.3v2.2l-7.3,0.6v-2.8c0-0.5-0.2-1-0.7-1.3C4.1,16.2,2.9,14,2.9,11c0-4.5,3.6-8.1,8-8.1s8,3.6,8,8.1
	C18.9,13.9,17.5,16.4,15.3,17.6z M17.3,27c0.1,0.8-0.5,1.5-1.3,1.6l-9.9,0.7c0,0-0.1,0-0.1,0c-0.8,0-1.4-0.6-1.4-1.3
	c-0.1-0.8,0.5-1.5,1.3-1.6l9.9-0.7C16.6,25.6,17.3,26.2,17.3,27z M14.2,31.6c0.1,0.8-0.5,1.5-1.3,1.6l-3.6,0.3c0,0-0.1,0-0.1,0
	c-0.7,0-1.4-0.6-1.4-1.3c-0.1-0.8,0.5-1.5,1.3-1.6l3.6-0.3C13.4,30.2,14.1,30.8,14.2,31.6z M16.7,11c-0.1,0.7-0.6,1.1-1.3,1.1
	c0,0-0.1,0-0.1,0c-0.7-0.1-1.2-0.7-1.1-1.4c0.2-2.1-1.6-2.8-1.8-2.9c-0.7-0.2-1-1-0.8-1.6c0.2-0.7,0.9-1,1.6-0.8
	C14.6,5.9,17,7.7,16.7,11z"/>
</svg>
