<?xml version="1.0" encoding="utf-8"?>
<!-- Generator: Adobe Illustrator 21.0.0, SVG Export Plug-In . SVG Version: 6.00 Build 0)  -->
<svg version="1.1" id="Layer_1" xmlns="http://www.w3.org/2000/svg" xmlns:xlink="http://www.w3.org/1999/xlink" x="0px" y="0px"
	 viewBox="0 0 24.5 35.6" style="enable-background:new 0 0 24.5 35.6;" xml:space="preserve">
<style type="text/css">
	.st0{fill:#FFFBF2;}
	.st1{fill:#D6D6D6;}
</style>
<polygon class="st0" points="-872.7,-260.1 -872.7,-560.1 -1672.7,-560.1 -1672.7,-260.1 -1672.7,339.9 -872.7,339.9 -872.7,-260.1 
	"/>
<path class="st1" d="M24.5,4.2c0-2.3-1.9-4.2-4.2-4.2c-2.3,0-4.2,1.9-4.2,4.2c0,1.7,1.1,3.2,2.6,3.9c0,0.7-0.5,5.1-6.7,7.4
	c-2.9,1-5,2.4-6.1,3.9V8.1c1.6-0.6,2.5-2.1,2.5-3.9C8.4,1.9,6.5,0,4.2,0C1.8,0,0,1.9,0,4.2c0,1.7,1.1,3.3,2.7,3.9v19.4
	C1.1,28.1,0,29.6,0,31.4c0,2.3,1.8,4.2,4.2,4.2c2.3,0,4.3-1.9,4.3-4.2c0-1.7-1-3.3-2.6-3.9v-1.3c0-0.4,0.2-5.3,7.2-7.8
	c8.4-3,8.8-9.6,8.8-10.3C23.4,7.4,24.5,5.9,24.5,4.2z M4.1,2.4c1,0,1.8,0.8,1.8,1.8S5.1,6,4.1,6c-1,0-1.8-0.8-1.8-1.8
	S3.1,2.4,4.1,2.4z M4.1,33.2c-1,0-1.8-0.8-1.8-1.8s0.8-1.8,1.8-1.8c1,0,1.8,0.8,1.8,1.8S5.1,33.2,4.1,33.2z M20.3,6
	c-1,0-1.8-0.8-1.8-1.8s0.8-1.8,1.8-1.8c1,0,1.8,0.8,1.8,1.8S21.3,6,20.3,6z"/>
</svg>
