<?xml version="1.0" encoding="utf-8"?>
<!-- Generator: Adobe Illustrator 21.0.0, SVG Export Plug-In . SVG Version: 6.00 Build 0)  -->
<svg version="1.1" id="Layer_1" xmlns="http://www.w3.org/2000/svg" xmlns:xlink="http://www.w3.org/1999/xlink" x="0px" y="0px"
	 viewBox="0 0 33.4 26.9" style="enable-background:new 0 0 33.4 26.9;" xml:space="preserve">
<style type="text/css">
	.st0{fill:#FFFBF2;}
	.st1{fill:#D6D6D6;}
</style>
<polygon class="st0" points="-932.4,-193.1 -932.4,-493.1 -1732.4,-493.1 -1732.4,-193.1 -1732.4,406.9 -932.4,406.9 "/>
<path id="XMLID_120_" class="st1" d="M33.4,1.5C33.4,0.7,32.8,0,32,0H1.5C0.7,0,0,0.7,0,1.5v24c0,0.8,0.7,1.5,1.5,1.5H32
	c0.8,0,1.5-0.7,1.5-1.5V1.5z M30.5,6.2H20.4V2.9h10.2V6.2z M8.7,6.2V2.9h3.6v3.3H8.7z M14.5,2.9h3.6v3.3h-3.6V2.9z M6.5,2.9v3.3H2.9
	V2.9H6.5z M2.9,24V8.7h27.6V24H2.9z"/>
</svg>
