<?xml version="1.0" encoding="utf-8"?>
<!-- Generator: Adobe Illustrator 21.0.0, SVG Export Plug-In . SVG Version: 6.00 Build 0)  -->
<svg version="1.1" id="Layer_1" xmlns="http://www.w3.org/2000/svg" xmlns:xlink="http://www.w3.org/1999/xlink" x="0px" y="0px"
	 viewBox="0 0 36.3 36.3" style="enable-background:new 0 0 36.3 36.3;" xml:space="preserve">
<style type="text/css">
	.st0{fill:#FFFBF2;}
	.st1{fill:#D6D6D6;}
</style>
<polygon class="st0" points="-866.4,-260.8 -866.4,-560.8 -1666.4,-560.8 -1666.4,-260.8 -1666.4,339.2 -866.4,339.2 -866.4,-260.8 
	"/>
<path id="XMLID_175_" class="st1" d="M36.2,1.5c-0.1-0.8-0.7-1.4-1.5-1.4c-10-0.8-17.2,4.1-21.6,10.2c-2.5-0.8-5.1-0.5-7.5,0.8
	c-2.3,1.3-4.3,3.5-5.6,6.2c-0.3,0.6-0.2,1.3,0.3,1.8c0.5,0.5,1.2,0.6,1.8,0.3C4.8,18,7.7,18.2,9.4,20l7,7c0,0,0,0,0,0
	c1.7,1.7,2,4.6,0.6,7.1c-0.3,0.6-0.2,1.3,0.3,1.8c0.3,0.3,0.7,0.5,1.1,0.5c0.2,0,0.5,0,0.7-0.2c2.7-1.3,4.9-3.2,6.2-5.5
	c1.4-2.4,1.6-5.1,0.8-7.5c1.8-1.3,3.4-2.7,4.7-4.3C35,14,36.8,8.2,36.2,1.5z M5.3,15.3c1.7-1.7,3.8-2.7,6.1-2.3
	c-0.6,1.1-1.2,2.2-1.6,3.3C8.4,15.6,6.9,15.3,5.3,15.3z M21,31.1c0.1-1.6-0.3-3.2-1-4.5c1.1-0.5,2.3-1,3.3-1.6
	C23.7,27.2,22.7,29.4,21,31.1z M17.9,24l-5.6-5.6C15.1,10.9,22.1,3,33.2,3.2C33.6,16.4,22.6,22.1,17.9,24z M28.1,8.2
	c0.5,0.5,0.8,1.1,0.8,1.8s-0.3,1.3-0.8,1.8c-0.5,0.5-1.1,0.8-1.8,0.8s-1.3-0.3-1.8-0.8c-0.5-0.5-0.8-1.1-0.8-1.8s0.3-1.3,0.8-1.8
	c0.5-0.5,1.1-0.8,1.8-0.8S27.6,7.8,28.1,8.2z M5.9,24.6C4.1,26.5,4,30.1,4,30.8c0,0.9,0.7,1.6,1.6,1.6c0,0,0,0,0.1,0
	c0.8,0,4.3-0.1,6.1-1.9c1.1-1.1,1.4-2.3,1.4-3c0-1.1-0.5-2.1-1.3-2.9C9.8,22.6,7.3,23.2,5.9,24.6z M9.5,28.2
	c-0.4,0.4-1.3,0.7-2.2,0.8c0.2-0.9,0.4-1.8,0.8-2.1c0.3-0.3,0.5-0.4,0.8-0.4c0.2,0,0.4,0.1,0.7,0.3c0.2,0.2,0.3,0.5,0.3,0.7
	C9.9,27.7,9.7,28,9.5,28.2z"/>
</svg>
