<?xml version="1.0" standalone="no"?>
<!DOCTYPE svg PUBLIC "-//W3C//DTD SVG 20010904//EN"
 "http://www.w3.org/TR/2001/REC-SVG-20010904/DTD/svg10.dtd">
<svg version="1.0" xmlns="http://www.w3.org/2000/svg"
 width="260.000000pt" height="260.000000pt" viewBox="0 0 260.000000 260.000000"
 preserveAspectRatio="xMidYMid meet">
<metadata>
Created by potrace 1.11, written by Peter Selinger 2001-2013
</metadata>
<g transform="translate(0.000000,260.000000) scale(0.100000,-0.100000)"
fill="#000000" stroke="none">
<path d="M2205 2360 c-11 -4 -56 -10 -99 -14 -106 -8 -124 -14 -178 -53 -39
-28 -50 -44 -63 -86 -19 -63 -19 -98 -1 -123 16 -22 28 -15 32 19 1 12 3 25 3
29 1 3 9 4 20 1 13 -3 17 -11 13 -25 -4 -18 -2 -19 15 -10 11 6 33 28 48 48
27 35 29 36 36 16 5 -12 27 -31 50 -42 23 -12 52 -33 65 -47 26 -28 32 -73 11
-73 -13 0 -52 -67 -49 -83 1 -4 -1 -6 -5 -6 -23 4 -32 -3 -26 -17 5 -14 3 -15
-14 -6 -15 9 -34 4 -94 -25 -41 -19 -75 -38 -77 -43 -1 -4 -9 -15 -16 -25 -10
-14 -16 -16 -34 -6 -26 14 -62 -1 -62 -25 0 -10 -8 -13 -26 -10 -53 10 -213
-69 -214 -106 0 -22 -20 -34 -20 -12 0 15 -2 15 -27 -2 -49 -31 -93 -86 -98
-123 -3 -20 -8 -51 -11 -68 -6 -37 -19 -43 -29 -13 -3 11 -10 20 -15 20 -10 0
-23 -67 -14 -81 3 -6 -1 -29 -9 -52 -8 -23 -15 -49 -15 -57 0 -8 -1 -19 -2
-25 -5 -21 0 -36 10 -30 7 5 9 -12 5 -49 -4 -31 -2 -56 3 -56 4 0 24 -21 42
-46 19 -25 49 -54 66 -65 56 -34 130 -21 171 31 26 32 54 99 55 134 1 21 6 36
14 36 7 0 10 -8 7 -20 -5 -18 0 -20 51 -20 41 0 56 -4 56 -14 0 -7 7 -19 16
-26 40 -34 59 -137 31 -168 -9 -10 -17 -22 -17 -25 0 -4 -11 -25 -25 -47 -14
-22 -25 -46 -25 -54 0 -9 -11 -14 -34 -14 -37 0 -94 -26 -102 -47 -3 -8 -11
-12 -18 -9 -6 2 -23 -7 -36 -21 -18 -19 -26 -22 -37 -13 -10 8 -23 8 -52 -2
-21 -7 -44 -9 -50 -6 -6 4 -23 9 -37 12 -18 3 -23 1 -18 -7 5 -9 -8 -11 -54
-6 -38 4 -63 3 -67 -4 -4 -6 -11 -6 -18 -1 -16 12 -121 32 -169 32 -24 0 -38
-5 -38 -12 0 -7 -10 -1 -23 14 -26 31 -153 91 -177 83 -13 -4 -20 8 -34 52
-10 32 -29 78 -41 103 -26 52 -40 125 -36 189 2 29 -1 41 -8 36 -6 -3 -11 1
-11 9 0 9 6 16 14 16 17 0 156 154 156 174 0 8 4 17 8 20 4 3 8 23 7 45 -1 23
3 41 8 41 5 0 7 -8 4 -19 -11 -43 35 -68 67 -36 8 8 19 15 24 15 5 0 17 11 26
25 9 14 20 23 25 21 12 -8 50 22 65 53 8 15 17 47 20 70 6 54 -18 81 -69 81
-38 0 -130 -41 -137 -61 -9 -26 -37 1 -45 43 -18 87 12 135 117 184 30 14 69
37 87 50 l32 25 28 -43 c36 -55 51 -67 86 -68 25 0 32 8 28 38 -1 7 9 12 23
12 27 0 39 30 32 85 -4 31 2 55 13 55 13 0 32 -41 24 -53 -8 -13 -15 -77 -8
-77 10 0 25 42 30 82 7 60 -37 137 -99 173 -53 31 -131 42 -140 19 -5 -12 -12
-12 -48 2 -24 10 -47 21 -53 26 -5 4 -26 8 -47 8 -36 0 -38 -1 -38 -33 0 -23
-5 -34 -15 -34 -15 0 -19 14 -16 50 2 13 -5 17 -34 17 -23 0 -37 -5 -40 -15
-15 -47 -18 -51 -22 -30 -10 48 -14 51 -34 26 -13 -16 -23 -20 -32 -14 -31 25
-138 2 -258 -55 -81 -39 -99 -52 -119 -86 -21 -36 -24 -38 -31 -21 -7 18 -8
17 -9 -5 -3 -65 -8 -129 -14 -170 -3 -25 -8 -61 -10 -80 -11 -94 -19 -130 -31
-130 -19 0 -27 26 -32 112 -4 66 -2 84 16 118 11 22 24 59 27 83 l7 42 -22
-20 c-39 -34 -101 -174 -109 -245 -13 -111 7 -158 81 -187 29 -12 37 -21 37
-42 1 -14 3 -74 7 -133 3 -60 3 -108 -1 -108 -10 0 -27 50 -28 87 -2 41 -10
42 -42 1 -21 -27 -23 -34 -11 -41 21 -11 19 -51 -3 -70 -26 -24 -28 -22 -24
23 3 31 1 40 -11 40 -19 0 -43 -33 -92 -130 -21 -41 -47 -87 -57 -102 -17 -25
-19 -45 -16 -217 3 -197 10 -228 41 -197 23 24 48 10 37 -19 -9 -24 -5 -69 8
-90 33 -56 145 -145 210 -166 20 -7 43 -20 52 -30 8 -10 32 -25 53 -33 37 -15
37 -15 52 15 9 16 18 29 21 29 3 0 3 -3 1 -8 -3 -4 -1 -17 4 -30 6 -17 16 -22
41 -22 18 0 40 4 48 9 10 7 19 2 32 -20 18 -30 25 -32 96 -29 24 1 50 -4 58
-10 9 -8 54 -13 131 -12 96 0 119 2 128 16 13 17 30 23 21 7 -9 -13 47 -23 91
-17 87 14 105 19 110 33 4 10 14 12 33 8 25 -6 29 -3 40 29 6 20 15 36 20 36
12 0 31 -27 28 -40 -5 -22 32 -19 60 4 20 17 33 21 53 16 28 -8 39 4 54 58 7
25 27 20 23 -6 -4 -22 43 -28 93 -13 57 17 193 117 286 209 13 13 27 20 33 17
22 -13 40 42 43 133 3 122 23 144 24 27 0 -47 3 -89 7 -92 8 -9 63 44 90 87
43 68 65 179 71 348 4 113 3 124 -15 140 -11 9 -20 23 -20 31 0 15 68 107 97
131 44 36 92 70 100 70 4 0 40 30 79 68 53 49 75 78 84 110 7 23 15 40 18 38
2 -3 -1 -20 -7 -38 -11 -31 -11 -32 7 -13 57 63 59 71 59 228 0 130 -2 149
-17 157 -10 5 -20 27 -24 50 -3 22 -11 40 -17 40 -5 0 -8 4 -5 8 8 14 -12 77
-34 105 -27 34 -80 61 -94 47 -15 -15 -46 -12 -46 4 0 52 -62 95 -87 60 -11
-15 -13 -14 -18 9 -8 30 -22 37 -50 27z m-280 -130 c8 -13 -5 -13 -25 0 -13 8
-13 10 2 10 9 0 20 -4 23 -10z m265 -24 c0 -14 -4 -27 -8 -30 -5 -3 -9 8 -9
24 0 17 4 30 9 30 4 0 8 -11 8 -24z m-1427 -86 c4 -15 0 -20 -15 -20 -14 0
-18 5 -14 16 3 9 6 20 6 25 0 17 17 1 23 -21z m352 -80 c-1 -18 3 -31 12 -34
8 -3 12 -10 8 -16 -4 -6 -14 -6 -28 1 -20 9 -23 17 -21 52 1 23 3 44 3 46 1 2
7 -2 15 -8 7 -6 12 -25 11 -41z m-494 -20 c1 -27 2 -64 3 -81 0 -17 -2 -33 -7
-36 -4 -2 0 -11 8 -19 18 -18 32 -69 40 -149 l7 -60 -44 43 c-47 45 -67 52
-70 25 0 -10 -2 -25 -2 -33 -1 -8 6 -21 16 -28 27 -20 23 -61 -8 -72 -48 -19
-94 29 -54 57 25 18 26 33 2 33 -21 0 -62 35 -62 53 1 17 68 48 73 33 2 -6 7
9 11 34 4 25 18 74 32 109 23 57 31 89 33 129 1 6 6 12 11 12 6 0 11 -22 11
-50z m1739 0 c0 -26 -4 -40 -13 -40 -14 0 -15 49 -2 69 11 19 15 12 15 -29z
m174 14 c9 -24 7 -62 -4 -69 -6 -4 -8 -21 -4 -41 7 -39 -3 -127 -15 -120 -5 4
-7 231 -2 244 4 8 20 -1 25 -14z m-1714 -30 c0 -8 -5 -12 -10 -9 -6 4 -8 11
-5 16 9 14 15 11 15 -7z m121 -1 c13 -16 12 -17 -3 -4 -10 7 -18 15 -18 17 0
8 8 3 21 -13z m1236 -65 c-3 -8 -6 -5 -6 6 -1 11 2 17 5 13 3 -3 4 -12 1 -19z
m187 -22 c-3 -9 -13 -12 -27 -8 -21 6 -21 6 3 13 14 4 26 7 27 8 1 1 0 -5 -3
-13z m-1548 -42 c3 -28 1 -35 -6 -24 -10 16 -14 78 -4 68 3 -3 7 -23 10 -44z
m-416 -3 c0 -11 -4 -23 -10 -26 -5 -3 -10 -2 -10 4 0 5 -3 16 -6 25 -4 11 -1
16 10 16 9 0 16 -8 16 -19z m1934 -37 c3 -8 2 -12 -4 -9 -6 3 -10 10 -10 16 0
14 7 11 14 -7z m-1834 -14 c0 -5 -5 -10 -11 -10 -5 0 -7 5 -4 10 3 6 8 10 11
10 2 0 4 -4 4 -10z m1594 -22 c-8 -26 -34 -55 -34 -38 0 12 29 60 37 60 2 0 1
-10 -3 -22z m391 -8 c3 -6 -1 -7 -9 -4 -18 7 -21 14 -7 14 6 0 13 -4 16 -10z
m-1633 -52 c-9 -9 -15 -9 -24 0 -9 9 -7 12 12 12 19 0 21 -3 12 -12z m3 -79
c-10 -15 -25 -10 -19 6 4 8 10 12 15 9 5 -3 7 -10 4 -15z m-540 -28 c-3 -12
-11 -21 -16 -21 -6 0 -8 3 -6 8 2 4 7 16 11 26 9 25 20 13 11 -13z m781 4 c-3
-20 -16 -31 -16 -13 0 13 8 28 16 28 1 0 1 -7 0 -15z m-106 -41 c0 -8 -4 -12
-10 -9 -5 3 -10 10 -10 16 0 5 5 9 10 9 6 0 10 -7 10 -16z m566 -9 c1 -8 -2
-15 -7 -15 -5 0 -9 10 -9 22 0 23 12 17 16 -7z m-59 -17 c-3 -8 -6 -5 -6 6 -1
11 2 17 5 13 3 -3 4 -12 1 -19z m-919 -109 c-4 -66 -23 -63 -21 3 2 65 1 60
13 53 6 -4 9 -29 8 -56z m1527 41 c3 -11 3 -24 0 -30 -12 -19 -21 -10 -21 20
0 34 12 40 21 10z m-215 -25 c0 -34 -19 -51 -21 -20 -1 8 -2 21 -3 28 -3 16 3
27 15 27 5 0 9 -16 9 -35z m95 16 c3 -5 2 -12 -3 -15 -5 -3 -9 1 -9 9 0 17 3
19 12 6z m-1266 -73 c1 -5 -3 -8 -9 -8 -5 0 -10 12 -9 28 0 24 1 25 9 7 5 -11
9 -23 9 -27z m-262 -10 c-3 -8 -6 -5 -6 6 -1 11 2 17 5 13 3 -3 4 -12 1 -19z
m-112 -116 c-3 -3 -11 0 -18 7 -9 10 -8 11 6 5 10 -3 15 -9 12 -12z m365 -22
c0 -16 -4 -30 -9 -30 -14 0 -20 37 -8 49 16 16 17 14 17 -19z m1380 0 c0 -5
-5 -10 -11 -10 -5 0 -7 5 -4 10 3 6 8 10 11 10 2 0 4 -4 4 -10z m-1580 -105
c0 -8 -4 -15 -10 -15 -5 0 -10 7 -10 15 0 8 5 15 10 15 6 0 10 -7 10 -15z
m156 -51 c-3 -8 -10 -14 -16 -14 -11 0 -14 43 -3 54 10 10 26 -23 19 -40z
m-471 7 c2 -12 0 -32 -5 -44 -8 -21 -9 -21 -10 -2 -1 11 -3 29 -5 39 -4 20 3
41 11 33 3 -2 7 -14 9 -26z m1635 -1 c0 -5 -2 -10 -4 -10 -3 0 -8 5 -11 10 -3
6 -1 10 4 10 6 0 11 -4 11 -10z m-366 -62 c6 -40 -9 -54 -16 -15 -4 22 1 61 7
55 2 -2 6 -20 9 -40z m679 -10 c-5 -7 -7 -24 -3 -38 7 -29 -9 -120 -21 -120
-5 0 -9 19 -10 43 0 23 -2 53 -4 67 -2 16 5 31 19 42 25 21 32 23 19 6z
m-1519 -92 c-4 -28 -7 -96 -6 -150 2 -138 -17 -112 -28 39 -11 141 -6 175 22
168 17 -5 18 -11 12 -57z m-384 4 c0 -5 -2 -10 -4 -10 -3 0 -8 5 -11 10 -3 6
-1 10 4 10 6 0 11 -4 11 -10z m275 0 c3 -5 2 -10 -4 -10 -5 0 -13 5 -16 10 -3
6 -2 10 4 10 5 0 13 -4 16 -10z m-275 -34 c0 -3 -4 -8 -10 -11 -5 -3 -10 -1
-10 4 0 6 5 11 10 11 6 0 10 -2 10 -4z m1787 -28 c-3 -8 -6 -5 -6 6 -1 11 2
17 5 13 3 -3 4 -12 1 -19z m-1807 -33 c-6 -7 -6 -24 0 -45 13 -46 22 -110 15
-110 -3 0 -10 12 -16 28 -26 67 -28 139 -4 139 10 0 12 -4 5 -12z m1906 -4
c12 10 13 9 8 -5 -7 -18 -26 -17 -30 2 -1 7 0 8 3 2 3 -8 9 -7 19 1z m-176
-53 c0 -16 -4 -28 -9 -28 -14 0 -22 29 -15 57 8 31 24 12 24 -29z m-1397 -27
c6 -25 -6 -43 -26 -36 -12 5 -14 12 -5 36 11 31 22 31 31 0z m1562 -1 c-3 -5
-12 -10 -18 -10 -7 0 -6 4 3 10 19 12 23 12 15 0z m-1412 -20 c3 -10 0 -24 -7
-29 -9 -7 -12 -2 -11 20 0 33 10 39 18 9z m-218 -19 c-3 -6 -8 -29 -11 -53 -9
-62 -14 -60 -14 5 0 45 3 57 16 57 8 0 13 -4 9 -9z m239 -57 c3 -8 2 -12 -4
-9 -6 3 -10 10 -10 16 0 14 7 11 14 -7z m1223 10 c-3 -3 -12 -4 -19 -1 -8 3
-5 6 6 6 11 1 17 -2 13 -5z m-1397 -58 c0 -19 -4 -38 -10 -41 -6 -4 -10 10
-10 34 0 23 5 41 10 41 6 0 10 -15 10 -34z m989 -43 c-1 -61 -2 -65 -11 -36
-9 28 -4 103 7 103 3 0 5 -30 4 -67z m231 58 c0 -5 -7 -14 -15 -21 -12 -10
-15 -10 -15 2 0 8 3 18 7 21 9 10 23 9 23 -2z m-426 -141 c-6 -6 -10 -3 -10
10 0 13 4 16 10 10 7 -7 7 -13 0 -20z m-314 16 c0 -2 -7 -7 -16 -10 -8 -3 -12
-2 -9 4 6 10 25 14 25 6z m320 -60 c0 -3 -4 -8 -10 -11 -5 -3 -10 -1 -10 4 0
6 5 11 10 11 6 0 10 -2 10 -4z m87 -88 c-3 -8 -6 -5 -6 6 -1 11 2 17 5 13 3
-3 4 -12 1 -19z m-200 -70 c-3 -8 -6 -5 -6 6 -1 11 2 17 5 13 3 -3 4 -12 1
-19z"/>
</g>
</svg>
